PathFileType	4	(X/Y/Z)	E:\Qualisys_Data\Carbon_Farble_Plate\Data\Amateur_Runner\S14\T3\S14T3V11_c3d.trc
DataRate	CameraRate	NumFrames	NumMarkers	Units	OrigDataRate	OrigDataStartFrame	OrigNumFrames
200.000000	200.000000	5	39	mm	200.000000	156	313
Frame#	Time	LSHO			RSHO			LICST			RICST			LASIS			LHEEL			RASIS			LTROC			RTROC			SACR			LTH1			LSK4			LTH2			LTH3			RHM5			LSK2			LTH4			RTH1			LTOE			RTH2			RTH3			RTH4			LLEP			RLEP			LSK1			LSK3			RSK1			LHM5			RSK2			LFT1			RSK3			RSK4			LLME			RLME			RTOE			RHEEL			RFT1			RFT2			LFT2			
		X1	Y1	Z1	X2	Y2	Z2	X3	Y3	Z3	X4	Y4	Z4	X5	Y5	Z5	X6	Y6	Z6	X7	Y7	Z7	X8	Y8	Z8	X9	Y9	Z9	X10	Y10	Z10	X11	Y11	Z11	X12	Y12	Z12	X13	Y13	Z13	X14	Y14	Z14	X15	Y15	Z15	X16	Y16	Z16	X17	Y17	Z17	X18	Y18	Z18	X19	Y19	Z19	X20	Y20	Z20	X21	Y21	Z21	X22	Y22	Z22	X23	Y23	Z23	X24	Y24	Z24	X25	Y25	Z25	X26	Y26	Z26	X27	Y27	Z27	X28	Y28	Z28	X29	Y29	Z29	X30	Y30	Z30	X31	Y31	Z31	X32	Y32	Z32	X33	Y33	Z33	X34	Y34	Z34	X35	Y35	Z35	X36	Y36	Z36	X37	Y37	Z37	X38	Y38	Z38	X39	Y39	Z39	

157	0.78	191.9871673583984	1447.145385742188	-526.9595336914062	118.3053512573242	1436.229370117188	-241.7059478759766	116.4755630493164	996.9566040039062	-526.65478515625	133.7309875488281	995.3722534179688	-251.7539672851562	154.3821868896484	944.9458618164062	-507.1597595214844	-436.2640686035156	387.4176940917969	-418.9272766113281	161.2508850097656	954.447265625	-274.9748840332031	5.975799083709717	893.1677856445312	-551.7988891601562	32.13627243041992	867.517822265625	-217.9793548583984	-15.94707870483398	997.5570678710938	-394.4747314453125	14.49686336517334	656.8815307617188	-556.3705444335938	-271.6872253417969	460.5934753417969	-501.0945434570312	-60.11293792724609	674.8847045898438	-530.1997680664062	-1.371236681938171	559.6249389648438	-540.6785888671875	441.960693359375	112.4602127075195	-254.8745422363281	-185.6968688964844	505.7951354980469	-523.9315795898438	-78.00775909423828	578.180908203125	-517.873779296875	227.2470703125	692.8955078125	-229.5247650146484	-407.7286071777344	129.0360565185547	-461.8760681152344	153.6755523681641	665.3230590820312	-215.9445648193359	259.9713439941406	604.0521240234375	-264.83740234375	184.0892944335938	571.525634765625	-243.4599761962891	-79.73717498779297	512.5491943359375	-535.0957641601562	233.29150390625	517.7030029296875	-254.3380126953125	-148.1008758544922	431.0798950195312	-531.3143310546875	-238.6140441894531	387.357666015625	-513.8240356445312	277.8885498046875	402.4190063476562	-253.6264495849609	-444.8509216308594	198.7157897949219	-512.3615112304688	194.5558319091797	381.8121032714844	-254.3403472900391	-457.367431640625	368.8689270019531	-387.2904663085938	296.4308776855469	301.160400390625	-267.0770568847656	219.1249542236328	288.7256164550781	-267.8736267089844	-410.195068359375	343.0592346191406	-481.7667541503906	297.6226501464844	120.1307830810547	-290.8505249023438	501.2294311523438	163.8594970703125	-315.9414367675781	260.5783386230469	69.57146453857422	-348.974365234375	285.0790405273438	52.70276641845703	-378.4735717773438	266.3143920898438	44.9309196472168	-329.2314758300781	-467.7662963867188	380.9136047363281	-439.1308898925781
158	0.785	207.7470092773438	1443.20751953125	-526.51708984375	135.0717468261719	1431.8701171875	-240.8855438232422	132.3974761962891	993.1630859375	-526.9474487304688	149.6419982910156	991.9689331054688	-251.1972808837891	170.3531341552734	941.4784545898438	-507.2359313964844	-416.5118103027344	392.4928894042969	-417.7301025390625	177.9953918457031	951.1569213867188	-274.5485229492188	22.72430229187012	888.701171875	-551.754638671875	48.21963882446289	864.0762329101562	-218.7894439697266	0.2103866934776306	993.2498168945312	-394.3968200683594	34.50395202636719	652.4248657226562	-557.3616943359375	-250.4541778564453	460.2579040527344	-501.9129943847656	-40.52017211914062	668.9602661132812	-531.3948974609375	19.92917251586914	554.4103393554688	-542.153076171875	454.7765197753906	106.6987152099609	-258.6410827636719	-163.2313690185547	503.1816101074219	-525.3819580078125	-56.78001403808594	571.9865112304688	-519.3324584960938	245.2075042724609	690.18701171875	-229.2966918945312	-393.2450866699219	133.5463562011719	-462.1572265625	170.9629974365234	662.3522338867188	-217.7844543457031	278.4784851074219	601.5875854492188	-265.2250061035156	202.1557006835938	569.6326293945312	-245.2437896728516	-57.42835998535156	507.4406433105469	-537.32421875	250.7545471191406	514.3629150390625	-255.7404327392578	-127.9677429199219	428.4121704101562	-533.28076171875	-219.1615753173828	386.2083740234375	-514.8067016601562	293.9123229980469	397.8237609863281	-254.7395782470703	-429.5672302246094	203.7736968994141	-511.8379516601562	210.9775085449219	378.077880859375	-255.7488861083984	-437.8207092285156	373.5868530273438	-387.1084289550781	311.8739624023438	296.8311767578125	-268.9159851074219	233.7108764648438	284.8263244628906	-269.5	-391.6503601074219	347.5357666015625	-481.6559448242188	310.5691528320312	116.3444213867188	-292.3435974121094	514.0914306640625	157.9342498779297	-320.3106994628906	271.9633483886719	67.04720306396484	-350.5173034667969	296.00048828125	48.88181304931641	-380.2410583496094	278.5990905761719	43.30938720703125	-330.1275939941406	-448.3433532714844	386.2830200195312	-438.4042663574219
159	0.79	223.3511505126953	1439.261596679688	-526.08251953125	152.1296539306641	1427.39501953125	-240.0711212158203	147.7964477539062	989.2581787109376	-526.9176635742188	165.8192749023438	988.2581787109376	-251.1501922607422	186.7860870361328	937.88671875	-507.3717346191406	-396.43115234375	397.3023681640625	-417.6027221679688	194.4689331054688	947.9388427734376	-273.9282531738281	39.07686996459961	883.4878540039062	-551.435546875	64.6039047241211	860.20654296875	-218.8472442626953	16.35500717163086	988.57763671875	-394.476806640625	54.55936813354492	647.2135620117188	-558.3659057617188	-228.3424377441406	459.6026000976562	-502.9312744140625	-20.54729652404785	662.6246337890625	-532.5945434570312	41.51805114746094	548.976806640625	-544.1007080078125	466.8262939453125	100.8746871948242	-262.3326416015625	-140.3855895996094	500.3512268066406	-527.1614379882812	-35.18237686157227	565.352294921875	-520.9329223632812	263.1485290527344	687.0375366210938	-228.7685852050781	-378.1728515625	138.0803527832031	-462.234375	188.7319793701172	659.4751586914062	-219.9255981445312	296.9630737304688	598.6040649414062	-264.636474609375	219.9945373535156	566.6578979492188	-246.9338684082031	-34.56809234619141	502.46630859375	-540.0443725585938	267.3231506347656	510.8535461425781	-255.9851531982422	-106.9673309326172	424.9293518066406	-535.070068359375	-199.0195465087891	384.9851379394531	-515.5429077148438	309.9179382324219	393.2240295410156	-255.8971862792969	-413.76416015625	209.1593322753906	-511.157470703125	226.5171203613281	374.5872192382812	-257.0331420898438	-417.3298645019531	378.7881164550781	-385.4070129394531	326.1836242675781	291.6878051757812	-270.6535339355469	247.8720855712891	281.5370178222656	-270.2261657714844	-372.5352478027344	351.5489807128906	-480.9427490234375	322.8883972167969	112.2717819213867	-294.2502746582031	527.0167846679688	149.0721282958984	-325.89794921875	282.3495788574219	67.5036849975586	-352.3128356933594	304.6730346679688	46.86205291748047	-381.4681091308594	287.1589050292969	44.31801223754883	-330.9668273925781	-428.0572814941406	391.5127868652344	-437.4291381835938
160	0.795	238.6186676025391	1434.817016601562	-525.6434936523438	169.3232421875	1422.454467773438	-239.0917663574219	163.6986083984375	984.7682495117188	-527.334716796875	182.0122985839844	985.0296020507812	-251.1095428466797	202.8600006103516	933.683837890625	-507.1060180664062	-375.2167053222656	402.0130310058594	-416.7162475585938	210.618896484375	944.0347290039062	-273.8292236328125	55.55206298828125	878.0595092773438	-551.4395141601562	80.95390319824219	856.30224609375	-219.2807312011719	32.45033264160156	983.8151245117188	-394.2372436523438	74.83745574951172	642.15625	-559.5332641601562	-206.0108795166016	458.957763671875	-504.1387634277344	-0.4975230097770691	656.2297973632812	-533.4900512695312	63.58444595336914	543.53662109375	-545.999267578125	475.5956726074219	92.48565673828124	-266.7384338378906	-117.5381164550781	497.2232055664062	-528.57421875	-13.49108028411865	558.6038208007812	-522.853271484375	281.2166442871094	683.193359375	-228.4746704101562	-362.3560485839844	142.4162902832031	-462.4083251953125	206.3024444580078	656.6019897460938	-221.6796875	315.0606689453125	594.7611694335938	-264.6658325195312	237.4526824951172	563.3270263671875	-248.4888000488281	-12.1045093536377	496.5697326660156	-542.1458129882812	284.151123046875	506.7542724609375	-257.4264831542969	-85.94940948486328	421.15625	-536.6101684570312	-178.4429626464844	383.181640625	-516.3530883789062	325.6329345703125	388.3714904785156	-257.3358154296875	-397.0585021972656	214.1553649902344	-510.9528503417969	241.8809204101562	370.9595947265625	-257.4529418945312	-396.4754028320312	383.6568298339844	-384.5916442871094	340.4445190429688	287.1802978515625	-272.0715942382812	262.4917297363281	277.2976989746094	-271.4643249511719	-352.8493957519531	355.6111145019531	-480.9121398925781	334.3545227050781	108.2298126220703	-296.3412170410156	538.697265625	137.0972442626953	-331.7808532714844	290.7710571289062	69.25520324707031	-353.95751953125	310.4036254882812	45.61159515380859	-382.5565185546875	293.6246032714844	46.29283905029297	-331.7107238769531	-406.6821899414062	396.5593872070312	-436.74072265625
161	0.8	253.9294128417969	1430.56396484375	-525.515625	186.5011138916016	1417.548583984375	-238.4788055419922	178.9853515625	980.269287109375	-527.2429809570312	198.1548767089844	981.2365112304688	-250.7904663085938	218.8339233398438	929.6574096679688	-507.4149780273438	-353.4042663574219	406.5323181152344	-415.7783203125	227.1053161621094	940.551513671875	-273.4111328125	71.92237091064453	872.5745849609375	-551.2566528320312	97.47024536132812	852.2527465820312	-219.8898315429688	48.47332763671875	978.6416015625	-394.6651916503906	95.34732055664062	636.7777709960938	-560.8822021484375	-183.2132568359375	457.6643676757812	-505.5657653808594	19.6197509765625	649.4293823242188	-534.2039184570312	85.7589111328125	538.0379638671875	-547.8407592773438	483.222900390625	81.43733215332031	-270.4433288574219	-93.89380645751952	493.9039916992188	-530.516845703125	8.036185264587402	551.7369995117188	-524.4356689453125	297.1802673339844	678.17529296875	-229.2366943359375	-345.7402038574219	146.4422149658203	-462.2886962890625	223.4971160888672	652.8517456054688	-223.2971954345703	332.8792419433594	589.8142700195312	-265.0299987792969	254.5568237304688	559.2125854492188	-249.3843536376953	11.02215671539307	491.0618896484375	-544.855712890625	300.8457946777344	502.2755737304688	-258.1300659179688	-64.1975326538086	417.1573486328125	-538.439697265625	-157.5663146972656	381.6216430664062	-517.425537109375	341.5787658691406	383.5380249023438	-259.3525085449219	-379.5992736816406	218.9402923583984	-510.3218383789062	257.5198669433594	367.1954040527344	-257.5833129882812	-375.1861267089844	388.045654296875	-384.8496704101562	353.9627380371094	281.7265014648438	-274.37060546875	275.9614868164062	273.3988037109375	-272.114990234375	-332.17333984375	359.6175537109375	-480.61328125	344.1280212402344	103.8183135986328	-297.7040100097656	548.5040893554688	121.7326278686523	-335.8968200683594	297.5247192382812	70.07770538330078	-355.0885314941406	315.119873046875	44.83916091918945	-383.1586303710938	298.7614135742188	47.30103302001953	-331.3419189453125	-384.9318237304688	401.4604797363281	-435.7154235839844
